<mxfile host="app.diagrams.net" modified="2023-08-15T07:01:05.860Z" agent="Mozilla/5.0 (Windows NT 10.0; Win64; x64) AppleWebKit/537.36 (KHTML, like Gecko) Chrome/115.0.0.0 Safari/537.36" version="21.6.8" etag="2uooWA4WMM2ayLfVhll5" type="github">
  <diagram name="第 1 页" id="wlcXvdrq_jJZb1jvJBZU">
    <mxGraphModel>
      <root>
        <mxCell id="0" />
        <mxCell id="1" parent="0" />
      </root>
    </mxGraphModel>
  </diagram>
</mxfile>
